<?xml version="1.0" encoding="UTF-8" standalone="no"?>
<!-- Created with Inkscape (http://www.inkscape.org/) -->

<svg
   width="26.365217mm"
   height="4.4703989mm"
   viewBox="0 0 26.365217 4.4703989"
   version="1.1"
   id="svg1"
   inkscape:version="1.3 (0e150ed6c4, 2023-07-21)"
   sodipodi:docname="Dokemon.svg"
   xmlns:inkscape="http://www.inkscape.org/namespaces/inkscape"
   xmlns:sodipodi="http://sodipodi.sourceforge.net/DTD/sodipodi-0.dtd"
   xmlns="http://www.w3.org/2000/svg"
   xmlns:svg="http://www.w3.org/2000/svg">
  <sodipodi:namedview
     id="namedview1"
     pagecolor="#ffffff"
     bordercolor="#000000"
     borderopacity="0.25"
     inkscape:showpageshadow="2"
     inkscape:pageopacity="0.0"
     inkscape:pagecheckerboard="0"
     inkscape:deskcolor="#d1d1d1"
     inkscape:document-units="mm"
     inkscape:zoom="1"
     inkscape:cx="396.5"
     inkscape:cy="398.5"
     inkscape:window-width="1920"
     inkscape:window-height="1009"
     inkscape:window-x="-8"
     inkscape:window-y="188"
     inkscape:window-maximized="1"
     inkscape:current-layer="layer1" />
  <defs
     id="defs1" />
  <g
     inkscape:label="Layer 1"
     inkscape:groupmode="layer"
     id="layer1"
     transform="translate(-113.48635,-62.911192)">
    <g
       id="text28"
       style="font-size:6.35px;font-family:'Geometry Soft Pro';-inkscape-font-specification:'Geometry Soft Pro';fill:#ff8080"
       aria-label="Dokémon"
       inkscape:export-filename="dokemon-dark-small.svg"
       inkscape:export-xdpi="96"
       inkscape:export-ydpi="96"
       transform="translate(39.158333,-45.24375)">
      <path
         style="fill:#f9f9f9"
         d="m 75.95362,112.62534 c 1.12395,0 2.032,-0.90805 2.032,-2.032 0,-1.12395 -0.90805,-2.032 -2.032,-2.032 h -1.2192 c -0.22225,0 -0.4064,0.18415 -0.4064,0.4064 v 3.2512 c 0,0.22225 0.18415,0.4064 0.4064,0.4064 z m 0,-3.2512 c 0.6731,0 1.2192,0.5461 1.2192,1.2192 0,0.6731 -0.5461,1.2192 -1.2192,1.2192 h -0.8128 v -2.4384 z m 2.2352,1.6256 c 0,0.89535 0.73025,1.6256 1.6256,1.6256 0.89535,0 1.6256,-0.73025 1.6256,-1.6256 0,-0.89535 -0.73025,-1.6256 -1.6256,-1.6256 -0.89535,0 -1.6256,0.73025 -1.6256,1.6256 z m 0.8128,0 c 0,-0.45085 0.36195,-0.8128 0.8128,-0.8128 0.45085,0 0.8128,0.36195 0.8128,0.8128 0,0.45085 -0.36195,0.8128 -0.8128,0.8128 -0.45085,0 -0.8128,-0.36195 -0.8128,-0.8128 z m 5.924554,-0.93345 c 0.0762,-0.0762 0.12065,-0.1778 0.12065,-0.28575 0,-0.22225 -0.18415,-0.4064 -0.4064,-0.4064 -0.10795,0 -0.20955,0.0444 -0.28575,0.12065 l -1.74625,1.74625 v -2.6797 c 0,-0.22225 -0.18415,-0.4064 -0.4064,-0.4064 -0.22225,0 -0.4064,0.18415 -0.4064,0.4064 v 3.6576 c 0,0.22225 0.18415,0.4064 0.4064,0.4064 0.1016,0 0.20955,-0.0381 0.28575,-0.12065 l 0.93345,-0.93345 0.93345,0.93345 c 0.0762,0.0825 0.18415,0.12065 0.28575,0.12065 0.22225,0 0.4064,-0.18415 0.4064,-0.4064 0,-0.1016 -0.0381,-0.20955 -0.12065,-0.28575 l -0.93345,-0.93345 z m 2.203454,2.55905 c 0.22225,0 0.4064,-0.18415 0.4064,-0.4064 0,-0.22225 -0.18415,-0.4064 -0.4064,-0.4064 h -0.4064 c -0.3048,0 -0.56515,-0.15875 -0.70485,-0.4064 h 1.92405 c 0.22225,0 0.4064,-0.18415 0.4064,-0.4064 0,-0.89535 -0.73025,-1.6256 -1.6256,-1.6256 -0.89535,0 -1.6256,0.73025 -1.6256,1.6256 0,0.89535 0.73025,1.6256 1.6256,1.6256 z m -0.4064,-2.4384 c 0.29845,0 0.56515,0.1651 0.70485,0.4064 h -1.4097 c 0.1397,-0.2413 0.40005,-0.4064 0.70485,-0.4064 z m 0.5207,-1.5113 c 0.05715,-0.0572 0.0889,-0.13335 0.0889,-0.2159 0,-0.17145 -0.13335,-0.3048 -0.3048,-0.3048 -0.0762,0 -0.15875,0.0318 -0.2159,0.0889 l -0.4064,0.4064 c -0.05715,0.0572 -0.0889,0.13335 -0.0889,0.2159 0,0.17145 0.13335,0.3048 0.3048,0.3048 0.0762,0 0.15875,-0.0318 0.2159,-0.0889 z m 3.492504,3.5433 c 0,0.22225 0.18415,0.4064 0.4064,0.4064 0.22225,0 0.4064,-0.18415 0.4064,-0.4064 v -1.4224 c 0,-0.33655 0.27305,-0.6096 0.6096,-0.6096 0.33655,0 0.6096,0.27305 0.6096,0.6096 v 1.4224 c 0,0.22225 0.18415,0.4064 0.4064,0.4064 0.22225,0 0.4064,-0.18415 0.4064,-0.4064 v -1.4224 c 0,-0.7874 -0.635,-1.4224 -1.4224,-1.4224 -0.40005,0 -0.762,0.1651 -1.016,0.42545 -0.26035,-0.26035 -0.61595,-0.42545 -1.016,-0.42545 -0.2286,0 -0.4445,0.0572 -0.635,0.1524 -0.08255,-0.12065 -0.22225,-0.2032 -0.381,-0.2032 -0.254,0 -0.4572,0.2032 -0.4572,0.4572 0,0.15875 0.0762,0.29845 0.19685,0.381 -0.09525,0.1905 -0.14605,0.4064 -0.14605,0.635 v 1.4224 c 0,0.22225 0.18415,0.4064 0.4064,0.4064 0.22225,0 0.4064,-0.18415 0.4064,-0.4064 v -1.4224 c 0,-0.33655 0.27305,-0.6096 0.6096,-0.6096 0.33655,0 0.6096,0.27305 0.6096,0.6096 z"
         id="path28" />
      <path
         style="fill:#d97706"
         d="m 93.835237,110.99974 c 0,0.89535 0.73025,1.6256 1.6256,1.6256 0.89535,0 1.6256,-0.73025 1.6256,-1.6256 0,-0.89535 -0.73025,-1.6256 -1.6256,-1.6256 -0.89535,0 -1.6256,0.73025 -1.6256,1.6256 z m 0.8128,0 c 0,-0.45085 0.36195,-0.8128 0.8128,-0.8128 0.45085,0 0.8128,0.36195 0.8128,0.8128 0,0.45085 -0.36195,0.8128 -0.8128,0.8128 -0.45085,0 -0.8128,-0.36195 -0.8128,-0.8128 z"
         id="path29" />
      <path
         style="fill:#f9f9f9"
         d="m 97.39124,109.78054 c 0,0.18415 0.10795,0.3429 0.2667,0.4191 -0.1397,0.23495 -0.2159,0.508 -0.2159,0.8001 v 1.2192 c 0,0.22225 0.18415,0.4064 0.4064,0.4064 0.22225,0 0.4064,-0.18415 0.4064,-0.4064 v -1.2192 c 0,-0.45085 0.36195,-0.8128 0.8128,-0.8128 0.45085,0 0.8128,0.36195 0.8128,0.8128 v 1.2192 c 0,0.22225 0.18415,0.4064 0.4064,0.4064 0.22225,0 0.4064,-0.18415 0.4064,-0.4064 v -1.2192 c 0,-0.89535 -0.73025,-1.6256 -1.6256,-1.6256 -0.2921,0 -0.56515,0.0825 -0.80645,0.2159 -0.06985,-0.15875 -0.2286,-0.2667 -0.41275,-0.2667 -0.254,0 -0.4572,0.2032 -0.4572,0.4572 z"
         id="path30" />
    </g>
  </g>
</svg>
