<?xml version="1.0" encoding="UTF-8" standalone="no"?>
<!-- Created with Inkscape (http://www.inkscape.org/) -->

<svg
   width="41.012646mm"
   height="6.9539723mm"
   viewBox="0 0 41.012646 6.9539723"
   version="1.1"
   id="svg1"
   inkscape:version="1.3 (0e150ed6c4, 2023-07-21)"
   sodipodi:docname="Dokemon.svg"
   xmlns:inkscape="http://www.inkscape.org/namespaces/inkscape"
   xmlns:sodipodi="http://sodipodi.sourceforge.net/DTD/sodipodi-0.dtd"
   xmlns="http://www.w3.org/2000/svg"
   xmlns:svg="http://www.w3.org/2000/svg">
  <sodipodi:namedview
     id="namedview1"
     pagecolor="#ffffff"
     bordercolor="#000000"
     borderopacity="0.25"
     inkscape:showpageshadow="2"
     inkscape:pageopacity="0.0"
     inkscape:pagecheckerboard="0"
     inkscape:deskcolor="#d1d1d1"
     inkscape:document-units="mm"
     inkscape:zoom="1"
     inkscape:cx="396.5"
     inkscape:cy="241.5"
     inkscape:window-width="1920"
     inkscape:window-height="1009"
     inkscape:window-x="-8"
     inkscape:window-y="188"
     inkscape:window-maximized="1"
     inkscape:current-layer="layer1" />
  <defs
     id="defs1" />
  <g
     inkscape:label="Layer 1"
     inkscape:groupmode="layer"
     id="layer1"
     transform="translate(-138.63092,-26.711925)">
    <g
       id="text21"
       style="font-size:9.8778px;font-family:'Geometry Soft Pro';-inkscape-font-specification:'Geometry Soft Pro';fill:#ff8080;stroke-width:2"
       aria-label="Dokémon">
      <path
         style="fill:#333333"
         d="m 141.15964,33.665897 c 1.74837,0 3.16089,-1.412525 3.16089,-3.160896 0,-1.74837 -1.41252,-3.160896 -3.16089,-3.160896 h -1.89654 c -0.34572,0 -0.63218,0.286457 -0.63218,0.63218 v 5.057433 c 0,0.345723 0.28646,0.632179 0.63218,0.632179 z m 0,-5.057433 c 1.04704,0 1.89654,0.849491 1.89654,1.896537 0,1.047047 -0.8495,1.896538 -1.89654,1.896538 h -1.26436 v -3.793075 z m 3.47698,2.528717 c 0,1.392769 1.13595,2.528716 2.52872,2.528716 1.39277,0 2.52872,-1.135947 2.52872,-2.528716 0,-1.39277 -1.13595,-2.528717 -2.52872,-2.528717 -1.39277,0 -2.52872,1.135947 -2.52872,2.528717 z m 1.26436,0 c 0,-0.701324 0.56304,-1.264359 1.26436,-1.264359 0.70132,0 1.26436,0.563035 1.26436,1.264359 0,0.701323 -0.56304,1.264358 -1.26436,1.264358 -0.70132,0 -1.26436,-0.563035 -1.26436,-1.264358 z m 9.216,-1.452037 c 0.11853,-0.118534 0.18767,-0.276578 0.18767,-0.444501 0,-0.345723 -0.28645,-0.632179 -0.63218,-0.632179 -0.16792,0 -0.32596,0.06914 -0.4445,0.187678 l -2.71639,2.716395 v -4.168432 c 0,-0.345723 -0.28646,-0.632179 -0.63218,-0.632179 -0.34572,0 -0.63218,0.286456 -0.63218,0.632179 v 5.689613 c 0,0.345723 0.28646,0.632179 0.63218,0.632179 0.15804,0 0.32597,-0.05927 0.4445,-0.187678 l 1.45204,-1.452036 1.45203,1.452036 c 0.11854,0.128412 0.28646,0.187678 0.4445,0.187678 0.34573,0 0.63218,-0.286456 0.63218,-0.632179 0,-0.158045 -0.0593,-0.325967 -0.18767,-0.444501 l -1.45204,-1.452036 z m 3.4276,3.980753 c 0.34572,0 0.63218,-0.286456 0.63218,-0.632179 0,-0.345723 -0.28646,-0.632179 -0.63218,-0.632179 h -0.63218 c -0.47414,0 -0.87913,-0.246945 -1.09644,-0.632179 h 2.99298 c 0.34572,0 0.63218,-0.286456 0.63218,-0.632179 0,-1.39277 -1.13595,-2.528717 -2.52872,-2.528717 -1.39277,0 -2.52872,1.135947 -2.52872,2.528717 0,1.392769 1.13595,2.528716 2.52872,2.528716 z m -0.63218,-3.793075 c 0.46426,0 0.87912,0.256823 1.09643,0.632179 h -2.19287 c 0.21731,-0.375356 0.6223,-0.632179 1.09644,-0.632179 z m 0.80998,-2.350916 c 0.0889,-0.0889 0.13829,-0.207434 0.13829,-0.335845 0,-0.266701 -0.20744,-0.474135 -0.47414,-0.474135 -0.11853,0 -0.24694,0.04939 -0.33584,0.138289 l -0.63218,0.63218 c -0.0889,0.0889 -0.13829,0.207433 -0.13829,0.335845 0,0.2667 0.20743,0.474134 0.47413,0.474134 0.11854,0 0.24695,-0.04939 0.33585,-0.138289 z m 5.43279,5.511812 c 0,0.345723 0.28646,0.632179 0.63218,0.632179 0.34573,0 0.63218,-0.286456 0.63218,-0.632179 v -2.212627 c 0,-0.523523 0.42475,-0.948269 0.94827,-0.948269 0.52353,0 0.94827,0.424746 0.94827,0.948269 v 2.212627 c 0,0.345723 0.28646,0.632179 0.63218,0.632179 0.34572,0 0.63218,-0.286456 0.63218,-0.632179 v -2.212627 c 0,-1.224847 -0.98778,-2.212627 -2.21263,-2.212627 -0.6223,0 -1.18533,0.256823 -1.58045,0.661812 -0.40499,-0.404989 -0.95814,-0.661812 -1.58044,-0.661812 -0.3556,0 -0.69145,0.0889 -0.98778,0.237067 -0.12842,-0.187678 -0.34573,-0.31609 -0.59267,-0.31609 -0.39511,0 -0.7112,0.31609 -0.7112,0.711202 0,0.246945 0.11853,0.464257 0.30621,0.592668 -0.14817,0.296334 -0.22719,0.632179 -0.22719,0.98778 v 2.212627 c 0,0.345723 0.28646,0.632179 0.63218,0.632179 0.34572,0 0.63218,-0.286456 0.63218,-0.632179 v -2.212627 c 0,-0.523523 0.42474,-0.948269 0.94827,-0.948269 0.52352,0 0.94826,0.424746 0.94826,0.948269 z"
         id="path21" />
      <path
         style="fill:#d97706"
         d="m 168.97555,31.137181 c 0,1.392769 1.13595,2.528716 2.52872,2.528716 1.39277,0 2.52871,-1.135947 2.52871,-2.528716 0,-1.39277 -1.13594,-2.528717 -2.52871,-2.528717 -1.39277,0 -2.52872,1.135947 -2.52872,2.528717 z m 1.26436,0 c 0,-0.701324 0.56303,-1.264359 1.26436,-1.264359 0.70132,0 1.26435,0.563035 1.26435,1.264359 0,0.701323 -0.56303,1.264358 -1.26435,1.264358 -0.70133,0 -1.26436,-0.563035 -1.26436,-1.264358 z"
         id="path22" />
      <path
         style="fill:#333333"
         d="m 174.50712,29.240643 c 0,0.286456 0.16792,0.533401 0.41487,0.651935 -0.21731,0.365478 -0.33585,0.790224 -0.33585,1.244603 v 1.896537 c 0,0.345723 0.28646,0.632179 0.63218,0.632179 0.34573,0 0.63218,-0.286456 0.63218,-0.632179 v -1.896537 c 0,-0.701324 0.56304,-1.264359 1.26436,-1.264359 0.70133,0 1.26436,0.563035 1.26436,1.264359 v 1.896537 c 0,0.345723 0.28646,0.632179 0.63218,0.632179 0.34572,0 0.63218,-0.286456 0.63218,-0.632179 v -1.896537 c 0,-1.39277 -1.13595,-2.528717 -2.52872,-2.528717 -0.45438,0 -0.87912,0.128411 -1.25448,0.335845 -0.10866,-0.246945 -0.3556,-0.414868 -0.64206,-0.414868 -0.39511,0 -0.7112,0.31609 -0.7112,0.711202 z"
         id="path23" />
    </g>
  </g>
</svg>
